<svg viewBox="0 0 46 46" fill="none"
    xmlns="http://www.w3.org/2000/svg">
    <rect width="46" height="46" rx="23" fill="#0D0C00"/>
    <path d="M35.2859 31.1615L35.2858 31.1615L35.2828 31.1669C33.9871 33.5023 32.1647 35.2374 29.8043 36.3882C27.4278 37.547 24.6023 38.1387 21.3079 38.1387H15.3633C14.5974 38.1387 14.0635 38.1381 13.6479 38.1042C13.2401 38.0709 13.0058 38.0088 12.8284 37.9183C12.448 37.7245 12.1387 37.4153 11.9449 37.0349C11.8545 36.8575 11.7924 36.6232 11.7591 36.2154C11.7251 35.7998 11.7246 35.2659 11.7246 34.5V11.4551C11.7246 10.6892 11.7251 10.1553 11.7591 9.73967C11.7924 9.33189 11.8545 9.09761 11.9449 8.92016C12.1387 8.53979 12.448 8.23054 12.8284 8.03673C13.0058 7.94632 13.2401 7.88421 13.6479 7.85089C14.0635 7.81693 14.5974 7.81641 15.3633 7.81641H22.0183C25.347 7.81641 28.124 8.39491 30.3758 9.51962L30.3758 9.51965L30.3819 9.52262C32.6288 10.6168 34.3301 12.2211 35.5044 14.3439C36.6792 16.4674 37.2852 19.113 37.2852 22.3122C37.2852 25.8965 36.605 28.8345 35.2859 31.1615Z" stroke="#FFDA00" stroke-width="1.34766"/>
    <mask id="mask0_1_11240" style="mask-type:alpha" maskUnits="userSpaceOnUse" x="11" y="7" width="27" height="32">
        <path d="M37.959 22.3122C37.959 25.9789 37.2633 29.0395 35.872 31.4938C34.5104 33.9482 32.5862 35.7815 30.0997 36.9939C27.6131 38.2063 24.6825 38.8125 21.3079 38.8125H15.3633C13.8538 38.8125 13.099 38.8125 12.5224 38.5187C12.0153 38.2603 11.603 37.848 11.3446 37.3408C11.0508 36.7643 11.0508 36.0095 11.0508 34.5V11.4551C11.0508 9.94556 11.0508 9.1908 11.3446 8.61424C11.603 8.10709 12.0153 7.69476 12.5224 7.43635C13.099 7.14258 13.8538 7.14258 15.3633 7.14258H22.0183C25.4225 7.14258 28.3087 7.73399 30.6769 8.9168C33.0451 10.07 34.8508 11.7703 36.0941 14.0177C37.3373 16.2651 37.959 19.0299 37.959 22.3122Z" fill="#F9D63C"/>
    </mask>
    <g mask="url(#mask0_1_11240)">
        <ellipse cx="22.3619" cy="20.3764" rx="7.26178" ry="6.62736" fill="#FFDA00"/>
        <path d="M31.9867 33.3536C31.9867 38.5512 26.7502 41.0276 20.2907 41.0276C10.6091 41.0276 8.47638 37.6636 8.83183 33.3536C9.19991 28.8905 13.8312 25.6797 20.2907 25.6797C26.7502 25.6797 31.9867 28.4315 31.9867 33.3536Z" fill="#FFDA00"/>
        <path d="M31.1699 22.5175C29.4673 21.7374 28.2384 19.9495 27.8368 19.1531C27.9938 23.2542 23.8562 23.1531 24.8648 24.0455C25.8734 24.9379 29.1874 25.796 32.1562 25.0951C35.1249 24.3943 33.2982 23.4926 31.1699 22.5175Z" fill="#F97429"/>
        <path fill-rule="evenodd" clip-rule="evenodd" d="M20.9238 17.7708C20.8177 17.2224 21.3337 16.8034 21.8694 16.9616L27.3673 18.5851C27.7711 18.7043 28.0158 19.1134 27.93 19.5255L27.5724 21.2422C27.4968 21.6051 27.1848 21.8692 26.8142 21.8639C25.633 21.847 23.1188 21.6851 22.1714 20.6494C21.4495 19.8603 21.0949 18.6545 20.9238 17.7708Z" fill="#0D0C00"/>
        <path fill-rule="evenodd" clip-rule="evenodd" d="M33.3805 19.16C33.4567 18.6938 33.038 18.3473 32.5708 18.4177L29.9624 18.8108C29.5618 18.8712 29.2676 19.2185 29.274 19.6235L29.2984 21.1597C29.3042 21.5211 29.5502 21.8347 29.9102 21.8687C30.5765 21.9317 31.6549 21.8935 32.4034 21.1684C33.0312 20.5604 33.2822 19.7621 33.3805 19.16Z" fill="#0D0C00"/>
        <path fill-rule="evenodd" clip-rule="evenodd" d="M27.5083 18.6255C28.0601 18.822 28.4369 19.2498 29.073 19.0824C29.429 18.9887 29.7584 18.848 29.7584 18.848C29.7584 18.848 29.5265 20.4435 29.4616 21.693C29.128 21.369 29.3516 20.4043 28.9772 20.3767C28.3344 20.3292 27.751 21.3698 27.32 21.7377C27.963 20.0986 27.6982 19.4853 27.5083 18.6255Z" fill="#7B7B7B"/>
        <path fill-rule="evenodd" clip-rule="evenodd" d="M26.9912 21.9536C26.4888 22.5616 25.8611 22.9233 25.3908 23.1943C24.8271 23.5191 24.4895 23.7136 24.865 24.0458C25.8736 24.9382 29.1875 25.7964 32.1563 25.0955C35.1251 24.3946 33.2984 23.4929 31.1701 22.5178C30.2855 22.1126 29.5288 21.4353 28.9496 20.7663L28.8516 22.091L26.9912 21.9536Z" fill="#F97429"/>
        <path opacity="0.2" d="M30.0463 23.1799C29.9725 23.3356 29.6124 23.2984 29.3499 23.2101C29.1368 23.1384 28.8703 22.9712 28.9437 22.7395C28.9968 22.5721 29.3215 22.49 29.6468 22.6201C29.972 22.7502 30.1202 23.0242 30.0463 23.1799Z" fill="#0D0C00"/>
    </g>
</svg>
